<svg height="512" viewBox="0 0 512 512" width="512" xmlns="http://www.w3.org/2000/svg"><g id="Flat"><path d="m351.716 165.373h56.569v45.255h-56.569z" fill="#404f66" transform="matrix(.707 -.707 .707 .707 -21.637 323.765)"/><path d="m109.373 159.716h45.255v56.569h-45.255z" fill="#404f66" transform="matrix(.707 -.707 .707 .707 -94.274 148.402)"/><path d="m264 136h-16v-44a28 28 0 0 0 -56 0 44 44 0 0 1 -88 0v-36h16v36a28 28 0 0 0 56 0 44 44 0 0 1 88 0z" fill="#bfbfbd"/><path d="m104 16h16v16h-16z" fill="#f35244"/><path d="m64 56h16v16h-16z" fill="#f35244"/><path d="m144 56h16v16h-16z" fill="#f35244"/><path d="m75.716 84.284h16v16h-16z" fill="#f35244" transform="matrix(.707 -.707 .707 .707 -40.735 86.225)"/><path d="m132.284 27.716h16v16h-16z" fill="#f35244" transform="matrix(.707 -.707 .707 .707 15.833 109.657)"/><path d="m132.284 84.284h16v16h-16z" fill="#f35244" transform="matrix(.707 -.707 .707 .707 -24.166 126.225)"/><path d="m75.716 27.716h16v16h-16z" fill="#f35244" transform="matrix(.707 -.707 .707 .707 -.735 69.657)"/><path d="m232 104h48v56h-48z" fill="#404f66"/><circle cx="256" cy="312" fill="#348fd9" r="168"/><circle cx="256" cy="312" fill="#ffa912" r="136"/><circle cx="256" cy="312" fill="#ffb531" r="112"/><circle cx="256" cy="312" fill="#f35244" r="24"/><path d="m261.397 272.544h98.174v16h-98.174z" fill="#f35244" transform="matrix(.866 -.5 .5 .866 -98.675 192.827)"/><g fill="#4d5e78"><path d="m248 200h16v24h-16z"/><path d="m248 400h16v24h-16z"/><path d="m198 213.398h16v24h-16z" transform="matrix(.866 -.5 .5 .866 -85.101 133.2)"/><path d="m298 386.603h16v24h-16z" transform="matrix(.866 -.5 .5 .866 -158.307 206.407)"/><path d="m161.397 250h16v24h-16z" transform="matrix(.5 -.866 .866 .5 -142.2 277.7)"/><path d="m334.603 350h16v24h-16z" transform="matrix(.5 -.866 .866 .5 -142.201 477.698)"/><path d="m144 304h24v16h-24z"/><path d="m344 304h24v16h-24z"/><path d="m157.398 354h24v16h-24z" transform="matrix(.866 -.5 .5 .866 -158.305 133.197)"/><path d="m194 390.603h24v16h-24z" transform="matrix(.5 -.866 .866 .5 -242.2 377.703)"/><path d="m294 217.397h24v16h-24z" transform="matrix(.5 -.866 .866 .5 -42.2 377.703)"/></g></g></svg>