<?xml version="1.0" encoding="iso-8859-1"?>
<!-- Generator: Adobe Illustrator 19.0.0, SVG Export Plug-In . SVG Version: 6.00 Build 0)  -->
<svg version="1.1" id="Layer_1" xmlns="http://www.w3.org/2000/svg" xmlns:xlink="http://www.w3.org/1999/xlink" x="0px" y="0px"
	 viewBox="0 0 512 512" style="enable-background:new 0 0 512 512;" xml:space="preserve">
<g>
	<g>
		<path d="M437.333,148.95H74.667C33.493,148.95,0,182.443,0,223.617V436.95c0,41.173,33.493,74.667,74.667,74.667h362.667
			c41.173,0,74.667-33.515,74.667-74.667V223.617C512,182.443,478.507,148.95,437.333,148.95z M490.667,436.95
			c0,29.397-23.915,53.333-53.333,53.333H74.667c-29.419,0-53.333-23.936-53.333-53.333V223.617
			c0-29.397,23.915-53.333,53.333-53.333h362.667c29.419,0,53.333,23.936,53.333,53.333V436.95z"/>
	</g>
</g>
<g>
	<g>
		<path d="M416,298.283c-17.643,0-32,14.357-32,32c0,17.643,14.357,32,32,32c17.643,0,32-14.357,32-32
			C448,312.641,433.643,298.283,416,298.283z M416,340.95c-5.867,0-10.667-4.779-10.667-10.667s4.8-10.667,10.667-10.667
			c5.867,0,10.667,4.779,10.667,10.667S421.867,340.95,416,340.95z"/>
	</g>
</g>
<g>
	<g>
		<path d="M501.333,255.617H416c-41.173,0-74.667,33.493-74.667,74.667c0,41.173,33.493,74.667,74.667,74.667h85.333
			c5.888,0,10.667-4.779,10.667-10.667v-128C512,260.395,507.221,255.617,501.333,255.617z M490.667,383.617H416
			c-29.419,0-53.333-23.936-53.333-53.333c0-29.397,23.915-53.333,53.333-53.333h74.667V383.617z"/>
	</g>
</g>
<g>
	<g>
		<path d="M412.821,10.198c-22.869-13.483-50.837-12.971-75.627,0.896L65.536,125.014C25.728,141.718,0,180.417,0,223.595
			c0,5.909,4.779,10.667,10.667,10.667s10.667-4.779,10.667-10.667c0-34.581,20.587-65.536,52.459-78.891L346.517,30.251
			c19.029-10.603,39.275-11.221,55.509-1.685c15.424,9.088,24.64,26.027,24.64,45.333v85.717c0,5.888,4.779,10.645,10.667,10.645
			c5.888,0,10.667-4.779,10.667-10.667V73.899C448,46.977,434.859,23.169,412.821,10.198z"/>
	</g>
</g>
<g>
	<g>
		<path d="M383.317,91.841c-2.069-5.504-8.256-8.299-13.739-6.229l-170.667,64c-5.525,2.069-8.299,8.235-6.229,13.76
			c1.6,4.267,5.675,6.912,9.984,6.912c1.259,0,2.517-0.235,3.755-0.704l170.667-64C382.613,103.51,385.408,97.366,383.317,91.841z"
			/>
	</g>
</g>
<g>
</g>
<g>
</g>
<g>
</g>
<g>
</g>
<g>
</g>
<g>
</g>
<g>
</g>
<g>
</g>
<g>
</g>
<g>
</g>
<g>
</g>
<g>
</g>
<g>
</g>
<g>
</g>
<g>
</g>
</svg>
