<?xml version="1.0"?>
<svg xmlns="http://www.w3.org/2000/svg" id="icons" enable-background="new 0 0 64 64" height="512px" viewBox="0 0 64 64" width="512px" class=""><g><path d="m57.003 64c.553 0 1-.447 1-1v-57.996c0-.04-.019-.074-.022-.112-.008-.068-.019-.133-.04-.199-.022-.067-.054-.127-.09-.187-.019-.033-.024-.07-.048-.102l-3-4.004c-.014-.019-.035-.027-.05-.045-.047-.055-.101-.098-.159-.141-.048-.036-.093-.072-.146-.099-.057-.029-.117-.045-.181-.063-.064-.019-.127-.035-.194-.04-.024.001-.045-.012-.07-.012h-44.006c-.025 0-.046.013-.07.014-.067.005-.13.021-.195.04-.063.018-.123.033-.18.063-.053.026-.099.062-.148.098-.057.044-.11.087-.157.141-.015.017-.036.026-.05.044l-3 4.004c-.023.032-.029.069-.048.102-.036.06-.067.119-.09.187-.021.066-.032.13-.039.199-.004.038-.023.072-.023.112v57.996c0 .553.447 1 1 1zm-46.506-62h43.006l1.502 2.004h-22.985c-.007 0-.013-.004-.02-.004s-.013.004-.02.004h-22.985zm-2.5 4.004h23.003v10.001h-2c-.553 0-1 .447-1 1v34c0 .553.447 1 1 1h2v9.995h-23.003zm26.003 44.001h-1v-32h1zm-3 0h-1v-32h1zm25.003 11.995h-23.003v-9.995h2c.553 0 1-.447 1-1v-34c0-.553-.447-1-1-1h-2v-10.001h23.003z" data-original="#000000" class="active-path" data-old_color="#000000" fill="#FF9800"/><path d="m23.999 25.993h-12.001c-.553 0-1 .447-1 1v14.008c0 .553.447 1 1 1h12.001c.553 0 1-.447 1-1v-14.008c0-.553-.447-1-1-1zm-7.867 8.006h3.734l-.75 6.002h-2.235zm6.867 6.002h-1.867l.859-6.878c.003-.021-.006-.041-.005-.063.002-.021.013-.039.013-.062 0-.048-.021-.09-.027-.136-.01-.066-.017-.131-.039-.192-.021-.063-.054-.116-.087-.173-.032-.054-.063-.106-.104-.153-.043-.049-.094-.087-.146-.127-.05-.038-.098-.075-.154-.104-.06-.03-.124-.047-.19-.064-.045-.012-.082-.037-.129-.043-.021-.003-.04.006-.061.005-.022-.002-.041-.013-.063-.013h-6c-.022 0-.041.011-.063.013-.021.001-.039-.008-.061-.005-.047.006-.084.031-.129.043-.066.018-.131.034-.19.064-.057.028-.104.065-.154.104-.052.04-.103.078-.146.127-.041.048-.071.1-.104.153-.033.057-.065.11-.087.173-.022.062-.029.126-.039.192-.007.047-.027.088-.027.136 0 .022.011.04.013.062.001.021-.008.041-.005.063l.858 6.878h-1.867v-12.008h4.001v.006c0 .553.447 1 1 1s1-.447 1-1v-.006h4z" data-original="#000000" class="active-path" data-old_color="#000000" fill="#FF9800"/><path d="m46.035 38.002h-.011c-.552 0-.994.447-.994 1s.452 1 1.005 1c.552 0 1-.447 1-1s-.448-1-1-1z" data-original="#000000" class="active-path" data-old_color="#000000" fill="#FF9800"/><path d="m46.005 35.004c-1.069 0-2.074.416-2.828 1.171-.391.391-.391 1.024 0 1.414.391.391 1.023.391 1.414 0 .754-.756 2.074-.756 2.828 0 .195.195.451.293.707.293s.512-.098.707-.293c.391-.39.391-1.023 0-1.414-.754-.755-1.759-1.171-2.828-1.171z" data-original="#000000" class="active-path" data-old_color="#000000" fill="#FF9800"/><path d="m46.007 32.005c-.001 0-.002 0-.003 0-1.87 0-3.628.728-4.948 2.049-.391.391-.391 1.023 0 1.414s1.023.391 1.414 0c.943-.943 2.198-1.463 3.534-1.463h.002c1.337 0 2.592.52 3.534 1.463.195.195.451.293.707.293s.512-.098.707-.293c.391-.391.391-1.023 0-1.414-1.319-1.321-3.077-2.048-4.947-2.049z" data-original="#000000" class="active-path" data-old_color="#000000" fill="#FF9800"/><path d="m40.348 33.346c3.119-3.119 8.195-3.119 11.314 0 .195.195.451.293.707.293s.512-.098.707-.293c.391-.391.391-1.023 0-1.414-3.9-3.898-10.244-3.897-14.143 0-.391.391-.391 1.023 0 1.414s1.024.39 1.415 0z" data-original="#000000" class="active-path" data-old_color="#000000" fill="#FF9800"/></g> </svg>
