<svg height="406pt" viewBox="0 -40 406.396 406" width="406pt" xmlns="http://www.w3.org/2000/svg"><path d="m0 229.699219h406.394531v36.683593h-406.394531zm0 0" fill="#ad4f3d"/><path d="m352.1875 229.699219h54.203125v36.683593h-54.203125zm0 0" fill="#c16d56"/><path d="m0 229.699219h52.972656v36.683593h-52.972656zm0 0" fill="#9f371f"/><path d="m8.925781 229.699219v-144.125c0-47.152344 38.222657-85.375 85.375-85.375h217.792969c47.148438 0 85.375 38.222656 85.375 85.375v144.125zm0 0" fill="#ad4f3d"/><path d="m312.09375.199219h-36c47.148438 0 85.375 38.222656 85.375 85.375v144.125h36v-144.125c0-47.152344-38.226562-85.375-85.375-85.375zm0 0" fill="#c16d56"/><path d="m132.367188.199219h-38.066407c-47.152343 0-85.375 38.222656-85.375 85.375v144.125h38.070313v-144.125c0-47.152344 38.222656-85.375 85.371094-85.375zm0 0" fill="#9f371f"/><path d="m17.519531 266.382812h36.683594v60.34375h-36.683594zm0 0" fill="#ad4f3d"/><path d="m44.589844 266.382812h9.613281v60.34375h-9.613281zm0 0" fill="#c16d56"/><path d="m17.519531 266.382812h11.234375v60.34375h-11.234375zm0 0" fill="#9f371f"/><path d="m397.46875 200.285156v29.398438h-388.542969v-29.398438c-.015625-34.359375 26.222657-63.035156 60.449219-66.0625 1.933594-.183594 3.863281-.277344 5.84375-.277344h255.957031c2.023438 0 4 .09375 6 .277344 34.152344 3.128906 60.289063 31.769532 60.292969 66.0625zm0 0" fill="#57d0e6"/><path d="m337.15625 134.222656c-1.980469-.183594-3.957031-.277344-6-.277344h-33.480469c2.023438 0 4 .09375 6 .277344 34.164063 3.113282 60.316407 31.757813 60.320313 66.0625v29.398438h33.480468v-29.398438c-.003906-34.304687-26.15625-62.949218-60.320312-66.0625zm0 0" fill="#94e4fb"/><path d="m106.585938 134.222656c1.929687-.183594 3.863281-.277344 5.84375-.277344h-37.203126c-1.980468 0-3.910156.09375-5.84375.277344-34.230468 3.023438-60.472656 31.699219-60.457031 66.0625v29.398438h37.199219v-29.398438c-.015625-34.363281 26.230469-63.039062 60.460938-66.0625zm0 0" fill="#47a7d5"/><path d="m282.351562 128.703125c-1.191406-1.21875-1.765624-2.910156-1.5625-4.601563 2.160157-18.203124 2.160157-36.597656 0-54.800781-.191406-1.675781.382813-3.347656 1.5625-4.554687 2.921876-2.878906 4.578126-6.800782 4.601563-10.902344.019531-3.089844-.984375-6.097656-2.851563-8.558594-2.539062-3.425781-6.445312-5.574218-10.699218-5.878906-4.25-.308594-8.425782 1.253906-11.429688 4.28125l-.691406.691406c-1.140625 1.109375-2.695312 1.6875-4.28125 1.597656-35.8125-2.4375-71.75-2.4375-107.558594 0-1.589844.089844-3.140625-.488281-4.28125-1.597656l-.367187-.367187c-5.484375-5.632813-14.386719-6.074219-20.402344-1.015625-3.035156 2.683594-4.832031 6.5-4.964844 10.550781-.128906 4.046875 1.417969 7.972656 4.277344 10.84375l.367187.367187c1.183594 1.207032 1.757813 2.878907 1.566407 4.554688-2.164063 18.203125-2.164063 36.597656 0 54.800781.199219 1.691407-.375 3.382813-1.566407 4.601563-1.570312 1.558594-2.777343 3.441406-3.542968 5.519531 1.933594-.183594 3.863281-.277344 5.84375-.277344h159.625c-.75-1.84375-1.859375-3.515625-3.269532-4.921875zm0 0" fill="#f9db5f"/><path d="m282.351562 128.703125c-1.191406-1.21875-1.765624-2.910156-1.5625-4.601563 2.160157-18.203124 2.160157-36.597656 0-54.800781-.191406-1.675781.382813-3.347656 1.5625-4.554687 2.921876-2.878906 4.578126-6.800782 4.601563-10.902344.019531-3.089844-.984375-6.097656-2.851563-8.558594-3.945312-5.308594-10.988281-7.261718-17.105468-4.75 2.476562.980469 4.632812 2.625 6.230468 4.75 1.871094 2.460938 2.871094 5.46875 2.851563 8.558594-.019531 4.101562-1.675781 8.023438-4.597656 10.902344-1.183594 1.207031-1.757813 2.878906-1.566407 4.554687 2.164063 18.203125 2.164063 36.597657 0 54.800781-.199218 1.691407.375 3.382813 1.566407 4.601563l.367187.324219c1.410156 1.40625 2.519532 3.078125 3.269532 4.921875h10.878906c-.75-1.84375-1.859375-3.515625-3.269532-4.921875zm0 0" fill="#f9ef8b"/><path d="m143.410156 128.703125c1.191406-1.21875 1.765625-2.910156 1.566406-4.601563-2.164062-18.203124-2.164062-36.597656 0-54.800781.191407-1.675781-.382812-3.347656-1.566406-4.554687l-.367187-.367188c-2.84375-2.859375-4.390625-6.761718-4.273438-10.792968.117188-4.03125 1.886719-7.835938 4.894531-10.523438-5.535156-4.726562-13.675781-4.757812-19.25-.078125-3.035156 2.683594-4.832031 6.5-4.964843 10.550781-.128907 4.046875 1.417969 7.972656 4.277343 10.84375l.371094.367188c1.179688 1.207031 1.753906 2.878906 1.5625 4.554687-2.164062 18.203125-2.164062 36.597657 0 54.800781.199219 1.691407-.375 3.382813-1.5625 4.601563-1.574218 1.558594-2.78125 3.441406-3.546875 5.519531 1.933594-.183594 3.863281-.277344 5.84375-.277344h13.601563c.761718-1.964843 1.925781-3.753906 3.414062-5.242187zm0 0" fill="#f9b347"/><path d="m352.1875 266.382812h36.683594v60.34375h-36.683594zm0 0" fill="#ad4f3d"/><path d="m379.257812 266.382812h9.613282v60.34375h-9.613282zm0 0" fill="#c16d56"/><path d="m352.1875 266.382812h11.234375v60.34375h-11.234375zm0 0" fill="#9f371f"/></svg>