<?xml version="1.0" encoding="iso-8859-1"?>
<!-- Generator: Adobe Illustrator 19.0.0, SVG Export Plug-In . SVG Version: 6.00 Build 0)  -->
<svg version="1.1" id="Capa_1" xmlns="http://www.w3.org/2000/svg" xmlns:xlink="http://www.w3.org/1999/xlink" x="0px" y="0px"
	 viewBox="0 0 512 512" style="enable-background:new 0 0 512 512;" xml:space="preserve">
<g>
	<path style="fill:#AD4F3D;" d="M440.829,3.638l-34.903,34.903c-2.314,2.314-3.614,5.453-3.614,8.725v58.917l59.581-77.521V12.363
		C461.893,1.371,448.602-4.134,440.829,3.638z"/>
	<path style="fill:#AD4F3D;" d="M499.637,50.107h-16.299l-77.521,59.581h58.917c3.273,0,6.411-1.3,8.725-3.614l34.903-34.903
		C516.134,63.398,510.629,50.107,499.637,50.107z"/>
</g>
<path style="fill:#EFEDEE;" d="M238.583,512C107.028,512,0,404.972,0,273.417S107.028,34.835,238.583,34.835
	s238.583,107.028,238.583,238.583S370.137,512,238.583,512z"/>
<path style="fill:#506366;" d="M238.583,461.453c-103.683,0-188.035-84.352-188.035-188.035S134.899,85.382,238.583,85.382
	s188.035,84.352,188.035,188.035S342.265,461.453,238.583,461.453z"/>
<path style="fill:#6EE3FF;" d="M238.583,410.906c-75.811,0-137.488-61.677-137.488-137.488S162.772,135.93,238.583,135.93
	s137.488,61.677,137.488,137.488C376.071,349.228,314.393,410.906,238.583,410.906z"/>
<path style="fill:#FD6F71;" d="M238.583,360.358c-47.939,0-86.941-39.002-86.941-86.941s39.002-86.941,86.941-86.941
	s86.941,39.002,86.941,86.941C325.524,321.358,286.522,360.358,238.583,360.358z"/>
<circle style="fill:#FADC60;" cx="238.58" cy="273.42" r="36.396"/>
<path style="fill:#C86D5C;" d="M238.583,251.972c-5.921,5.921-5.921,15.524,0,21.445c5.921,5.921,15.524,5.921,21.445,0
	l223.31-223.31l-21.445-21.445L238.583,251.972z"/>
<g>
</g>
<g>
</g>
<g>
</g>
<g>
</g>
<g>
</g>
<g>
</g>
<g>
</g>
<g>
</g>
<g>
</g>
<g>
</g>
<g>
</g>
<g>
</g>
<g>
</g>
<g>
</g>
<g>
</g>
</svg>
