<svg id="Capa_1" enable-background="new 0 0 512 512" height="512" viewBox="0 0 512 512" width="512" xmlns="http://www.w3.org/2000/svg"><g><g><path d="m137.743 380.459v85.204c0 4.266-3.47 7.735-7.735 7.735h-53.775v26.946c0 6.437 5.218 11.655 11.655 11.655h317.027c6.437 0 11.655-5.218 11.655-11.655v-119.885z" fill="#838383"/><path d="m117.441 500.344v-25.946h-41.208v25.946c0 6.437 5.218 11.656 11.655 11.656h41.207c-6.436 0-11.654-5.218-11.654-11.656z" fill="#5a5a5a"/><path d="m416.571 183.564v-171.909c0-6.437-5.218-11.655-11.655-11.655h-317.027c-6.437 0-11.655 5.218-11.655 11.655v234.294h53.774c4.265 0 7.735 3.47 7.735 7.735v127.775h278.828v-74.606c-26.437-8.027-45.736-32.62-45.736-61.644s19.299-53.618 45.736-61.645z" fill="#acacac"/><path d="m87.889 0c-6.437 0-11.655 5.218-11.655 11.655v234.294h53.774c4.265 0 7.735 3.47 7.735 7.735v127.775h108.659v-381.459z" fill="#9c9c9c"/><path d="m109.469 244.949v-110.871c0-3.219 2.609-5.828 5.828-5.828h2.143v-116.595c.001-6.437 5.219-11.655 11.656-11.655h-41.207c-6.437 0-11.655 5.218-11.655 11.655v233.294z" fill="#838383"/><g><path d="m109.469 179.391v66.559h20.538c4.265 0 7.735 3.47 7.735 7.735v8.216h69.595c3.219 0 5.828-2.609 5.828-5.828v-76.682z" fill="#60b7ff"/><path d="m109.469 180.39h20v65.559h-20z" fill="#26a6fe"/><g><path d="m213.167 180.39v-46.312c0-3.219-2.609-5.828-5.828-5.828h-92.041c-3.219 0-5.828 2.609-5.828 5.828v46.312z" fill="#fff"/></g><path d="m133.649 180.39v18.08c0 4.268 3.459 7.727 7.727 7.727s7.727-3.459 7.727-7.727v-18.08z" fill="#b3dafe"/><path d="m170.874 180.39v18.08c0 4.268 3.459 7.727 7.727 7.727s7.727-3.459 7.727-7.727v-18.08z" fill="#b3dafe"/><g><path d="m213.167 180.39v-46.312c0-3.219-2.609-5.828-5.828-5.828h-92.041c-3.219 0-5.828 2.609-5.828 5.828v46.312z" fill="#fff"/></g><path d="m135.298 128.25h-20c-3.219 0-5.828 2.609-5.828 5.828v46.312h20v-46.312c0-3.218 2.609-5.828 5.828-5.828z" fill="#eaf6ff"/><g><path d="m179.966 162.047h-37.296c-4.267 0-7.727-3.459-7.727-7.727s3.459-7.727 7.727-7.727h37.296c4.267 0 7.727 3.459 7.727 7.727s-3.46 7.727-7.727 7.727z" fill="#8ac9fe"/></g></g><g><path d="m284.282 426.483h-75.76c-4.267 0-7.727-3.459-7.727-7.727s3.459-7.727 7.727-7.727h75.76c4.267 0 7.727 3.459 7.727 7.727s-3.46 7.727-7.727 7.727z" fill="#acacac"/></g><g><path d="m370.835 245.209c0-14.236 4.65-27.402 12.5-38.076v-146.798c0-3.219-2.609-5.828-5.828-5.828h-92.041c-3.219 0-5.828 2.609-5.828 5.828v195.738c0 3.219 2.609 5.828 5.828 5.828h87.575c-1.431-5.327-2.206-10.92-2.206-16.692z" fill="#d8ecfe"/><g><path d="m310.544 256.073v-195.738c0-3.219 2.609-5.828 5.828-5.828h-30.905c-3.219 0-5.828 2.609-5.828 5.828v195.738c0 3.218 2.609 5.828 5.828 5.828h30.905c-3.219 0-5.828-2.61-5.828-5.828z" fill="#c4e2ff"/></g><path d="m370.835 245.209c0-14.236 4.65-27.402 12.5-38.076v-37.802h-103.697v86.742c0 3.219 2.609 5.828 5.828 5.828h87.575c-1.431-5.327-2.206-10.92-2.206-16.692z" fill="#6cf5c2"/><g><path d="m310.544 256.073v-86.742h-30.905v86.742c0 3.219 2.609 5.828 5.828 5.828h30.905c-3.219 0-5.828-2.61-5.828-5.828z" fill="#00f2a6"/></g><path d="m383.335 207.133v-37.802h-103.697v45.456h98.851c1.437-2.67 3.06-5.225 4.846-7.654z" fill="#fff"/><g><path d="m279.638 169.331h30.905v45.456h-30.905z" fill="#eaf6ff"/></g><path d="m383.335 207.133v-.072h-44.122v-37.729h-15.453v37.729h-44.122v15.453h44.122v39.386h15.453v-39.387h35.762c2.088-5.527 4.914-10.694 8.36-15.38z" fill="#9c9c9c"/><path d="m371.473 254.174h-84.108v-77.116h88.244v43.853c3.509-8.581 8.816-16.236 15.453-22.505v-138.071c0-7.474-6.081-13.555-13.554-13.555h-92.042c-7.474 0-13.554 6.081-13.554 13.555v195.738c0 7.474 6.081 13.554 13.554 13.554h90.19c-2.008-4.882-3.429-10.061-4.183-15.453zm-84.108-191.941h88.244v99.371h-88.244z" fill="#838383"/><path d="m356.042 119.224-9.103-5.255 9.103-5.255c3.695-2.134 4.961-6.859 2.828-10.555-2.133-3.694-6.858-4.962-10.555-2.828l-9.103 5.255v-10.512c0-4.268-3.459-7.727-7.727-7.727s-7.727 3.459-7.727 7.727v10.511l-9.103-5.256c-3.697-2.135-8.422-.867-10.555 2.828s-.867 8.421 2.828 10.555l9.103 5.255-9.103 5.255c-3.695 2.134-4.961 6.859-2.828 10.555 1.431 2.479 4.028 3.864 6.699 3.864 1.311 0 2.639-.334 3.856-1.036l9.103-5.256v10.51c0 4.268 3.459 7.727 7.727 7.727s7.727-3.459 7.727-7.727v-10.51l9.103 5.255c1.217.702 2.545 1.036 3.856 1.036 2.67 0 5.268-1.386 6.699-3.864 2.134-3.693.868-8.419-2.828-10.552z" fill="#60b7ff"/></g></g><g><g><circle cx="435.251" cy="245.209" fill="#fed402" r="65.416"/></g><g><path d="m400.74 245.209c0-30.803 21.296-56.618 49.964-63.564-4.956-1.201-10.127-1.853-15.453-1.853-36.129 0-65.416 29.288-65.416 65.417s29.288 65.416 65.416 65.416c5.326 0 10.496-.652 15.453-1.853-28.668-6.945-49.964-32.76-49.964-63.563z" fill="#fac600"/></g><g><g><g><path d="m468.374 235.883c-1.978 0-3.955-.755-5.463-2.264-7.374-7.373-17.197-11.435-27.659-11.435s-20.285 4.062-27.659 11.435c-3.018 3.018-7.909 3.018-10.927 0-3.017-3.017-3.017-7.909 0-10.926 21.276-21.277 55.896-21.277 77.172 0 3.017 3.017 3.017 7.909 0 10.926-1.509 1.509-3.486 2.264-5.464 2.264z" fill="#fff"/></g><g><path d="m450.657 253.6c-1.978 0-3.955-.755-5.463-2.264-2.656-2.655-6.187-4.118-9.942-4.118s-7.287 1.463-9.942 4.118c-3.017 3.018-7.909 3.017-10.927.001-3.017-3.018-3.018-7.909 0-10.927 5.574-5.575 12.986-8.646 20.869-8.646s15.295 3.07 20.869 8.646c3.018 3.018 3.017 7.909 0 10.927-1.509 1.508-3.487 2.263-5.464 2.263z" fill="#fff"/></g></g><g><circle cx="435.251" cy="267.345" fill="#fff" r="7.5"/></g></g></g><g><g><g><g><g><path d="m130.008 474.398h-109.941c-4.824 0-8.735-3.911-8.735-8.735v-211.979c0-4.824 3.911-8.735 8.735-8.735h109.941c4.824 0 8.735 3.911 8.735 8.735v211.979c0 4.824-3.911 8.735-8.735 8.735z" fill="#eaf6ff"/></g><g><path d="m42.237 465.663v-211.979c0-4.824 3.911-8.735 8.735-8.735h-30.905c-4.824 0-8.735 3.911-8.735 8.735v211.979c0 4.824 3.911 8.735 8.735 8.735h30.905c-4.824 0-8.735-3.911-8.735-8.735z" fill="#d8ecfe"/></g><g><path d="m86.472 452.188h-22.868c-4.267 0-7.727-3.459-7.727-7.727s3.459-7.727 7.727-7.727h22.869c4.267 0 7.727 3.459 7.727 7.727s-3.461 7.727-7.728 7.727z" fill="#9c9c9c"/></g></g><g><path d="m95.456 279.303h-40.837c-4.267 0-7.727-3.459-7.727-7.727s3.459-7.727 7.727-7.727h40.837c4.267 0 7.727 3.459 7.727 7.727s-3.46 7.727-7.727 7.727z" fill="#9c9c9c"/></g></g></g><g><path d="m54.884 360.914c2.709 0 5.309.473 7.727 1.335v-44.719c0-4.268-3.459-7.727-7.727-7.727s-7.727 3.459-7.727 7.727v44.719c2.418-.862 5.018-1.335 7.727-1.335z" fill="#60b7ff"/><path d="m115.395 321.46-3.977-2.296 3.977-2.296c3.695-2.134 4.961-6.859 2.828-10.555-2.134-3.694-6.858-4.961-10.555-2.828l-3.977 2.296v-4.592c0-4.268-3.459-7.727-7.727-7.727s-7.727 3.459-7.727 7.727v4.592l-3.977-2.296c-3.697-2.134-8.421-.867-10.555 2.828s-.867 8.421 2.828 10.555l3.977 2.296-3.977 2.296c-3.695 2.134-4.961 6.859-2.828 10.555 1.431 2.479 4.028 3.864 6.699 3.864 1.311 0 2.639-.334 3.856-1.036l3.977-2.296v4.592c0 4.268 3.459 7.727 7.727 7.727s7.727-3.459 7.727-7.727v-4.592l3.977 2.296c1.217.702 2.545 1.036 3.856 1.036 2.67 0 5.268-1.386 6.699-3.864 2.133-3.696.867-8.421-2.828-10.555z" fill="#8ac9fe"/></g></g><g><path d="m54.884 408.049c-13.271 0-24.067-10.797-24.067-24.067s10.796-24.067 24.067-24.067 24.067 10.797 24.067 24.067-10.796 24.067-24.067 24.067z" fill="#26a6fe"/></g><path d="m50.817 383.981c0-9.703 5.776-18.078 14.067-21.883-3.048-1.398-6.433-2.185-10-2.185-13.271 0-24.067 10.797-24.067 24.067s10.796 24.067 24.067 24.067c3.567 0 6.952-.786 10-2.185-8.291-3.802-14.067-12.177-14.067-21.881z" fill="#0593fc"/></g></svg>