<?xml version="1.0" encoding="UTF-8"?>
<svg xmlns="http://www.w3.org/2000/svg" xmlns:xlink="http://www.w3.org/1999/xlink" width="512" height="512" viewBox="0 0 60 42" version="1.1"><!-- Generator: Sketch 51.3 (57544) - http://www.bohemiancoding.com/sketch --><title>023 - Packing Furniture</title><desc>Created with Sketch.</desc><defs/><g id="Page-1" stroke="none" stroke-width="1" fill="none" fill-rule="evenodd"><g id="023---Packing-Furniture" fill-rule="nonzero"><path d="M58.93,24.12 C58.5759761,22.1276045 57.0563377,20.5448124 55.08,20.11 C54.7249656,20.0348427 54.3628966,19.9979653 54,20 L54,16 C54.0013544,14.1430697 53.2642914,12.3618053 51.9512431,11.0487569 C50.6381947,9.73570856 48.8569303,8.99864561 47,9 L29,9 C27.1430697,8.99864561 25.3618053,9.73570856 24.0487569,11.0487569 C22.7357086,12.3618053 21.9986456,14.1430697 22,16 L22,20 C19.4332082,20.0004821 17.2836155,21.9442494 17.0256562,24.4980461 C16.767697,27.0518428 18.4851537,29.3862212 21,29.9 L21,40 C21.0015928,40.5516236 21.4483764,40.9984072 22,41 L26,41 C26.5516236,40.9984072 26.9984072,40.5516236 27,40 L27,37 L49,37 L49,40 C49.0015928,40.5516236 49.4483764,40.9984072 50,41 L54,41 C54.5516236,40.9984072 54.9984072,40.5516236 55,40 L55,29.9 C57.6593454,29.3558785 59.4018468,26.7931155 58.93,24.12 Z" id="Shape" fill="#DF4D60"/><path d="M54,16 L54,20 C51.2404484,20.0045146 49.0045146,22.2404484 49,25 L49,27 L42,27 C40.9390446,26.9997081 39.9214593,27.4210417 39.1712505,28.1712505 C38.4210417,28.9214593 37.9997081,29.9390446 38,31 C38.0002919,29.9390446 37.5789583,28.9214593 36.8287495,28.1712505 C36.0785407,27.4210417 35.0609554,26.9997081 34,27 L27,27 L27,25.22 C27.0427148,22.5901774 25.099437,20.349591 22.49,20.02 C22.3272124,20.003557 22.1635861,19.9968784 22,20 L22,16 C21.9986456,14.1430697 22.7357086,12.3618053 24.0487569,11.0487569 C25.3618053,9.73570856 27.1430697,8.99864561 29,9 L47,9 C48.8569303,8.99864561 50.6381947,9.73570856 51.9512431,11.0487569 C53.2642914,12.3618053 54.0013544,14.1430697 54,16 Z" id="Shape" fill="#FF5364"/><path d="M30,9 L46,9 C49.3137085,9 52,11.6862915 52,15 L52,33 L24,33 L24,15 C24,11.6862915 26.6862915,9 30,9 Z" id="Shape" fill="#FB7B76"/><path d="M9,22 C8.44771525,22 8,21.5522847 8,21 L8,12 C8,11.4477153 8.44771525,11 9,11 C9.55228475,11 10,11.4477153 10,12 L10,21 C10,21.5522847 9.55228475,22 9,22 Z" id="Shape" fill="#95A5A5"/><path d="M13,17 C12.4477153,17 12,16.5522847 12,16 L12,12 C12,11.4477153 12.4477153,11 13,11 C13.5522847,11 14,11.4477153 14,12 L14,16 C14,16.5522847 13.5522847,17 13,17 Z" id="Shape" fill="#FAC176"/><rect id="Rectangle-path" fill="#F0C419" x="1" y="25" width="16" height="16" rx="1"/><rect id="Rectangle-path" fill="#F3D55B" x="1" y="25" width="16" height="13" rx="1"/><path d="M11.2226,30.4818 L9.2774,29.1849 C9.10942741,29.0728892 8.89057259,29.0728892 8.7226,29.1849 L6.7774,30.4818 C6.62395904,30.5841206 6.42665095,30.5936656 6.2640498,30.5066341 C6.10144865,30.4196025 5.99996011,30.2501278 6,30.0657 L5.99999999,25 L12,25 L12,30.0657 C12.0000399,30.2501278 11.8985513,30.4196025 11.7359502,30.5066341 C11.573349,30.5936656 11.376041,30.5841206 11.2226,30.4818 Z" id="Shape" fill="#7F5B53"/><path d="M5,21 L13,21 C13.5522847,21 14,21.4477153 14,22 L14,25 L4,25 L4,22 C4,21.4477153 4.44771525,21 5,21 Z" id="Shape" fill="#95A5A5"/><path d="M6,21 L12,21 C12.5522847,21 13,21.4477153 13,22 L13,25 L5,25 L5,22 C5,21.4477153 5.44771525,21 6,21 Z" id="Shape" fill="#BDC3C7"/><path d="M15.41,12 L2.59,12 C2.44302317,12.0000009 2.30349016,11.9353345 2.20848773,11.8231884 C2.1134853,11.7110424 2.07263701,11.562777 2.0968,11.4178 L3.9302,0.4178 C3.97039516,0.176630465 4.17910381,-9.93219872e-05 4.4236,-3.88578059e-16 L13.5764,-3.88578059e-16 C13.8208206,-1.5263936e-06 14.0294173,0.176705083 14.0696,0.4178 L15.903,11.4178 C15.9271573,11.5627426 15.8863343,11.7109738 15.7913769,11.8231122 C15.6964195,11.9352505 15.5569419,11.9999421 15.41,12 Z" id="Shape" fill="#4482C3"/><path d="M13.6381,12 L4.3619,12 C4.1383,12 3.9683,11.7226 4.005,11.4178 L5.3316,0.4178 C5.3607,0.1767 5.5116,0 5.6885,0 L12.3115,0 C12.4884,0 12.6393,0.1767 12.6684,0.4178 L13.995,11.4178 C14.0317,11.7226 13.8617,12 13.6381,12 Z" id="Shape" fill="#2FA8CC"/><path d="M27,25.22 L27,40 C26.9984072,40.5516236 26.5516236,40.9984072 26,41 L22,41 C21.4483764,40.9984072 21.0015928,40.5516236 21,40 L21,29.9 C18.4851537,29.3862212 16.767697,27.0518428 17.0256562,24.4980461 C17.2836155,21.9442494 19.4332082,20.0004821 22,20 C22.1635861,19.9968784 22.3272124,20.003557 22.49,20.02 C25.099437,20.349591 27.0427148,22.5901774 27,25.22 Z" id="Shape" fill="#AF8066"/><path d="M55,29.9 L55,40 C54.9984072,40.5516236 54.5516236,40.9984072 54,41 L50,41 C49.4483764,40.9984072 49.0015928,40.5516236 49,40 L49,25 C49.0045146,22.2404484 51.2404484,20.0045146 54,20 C54.3628966,19.9979653 54.7249656,20.0348427 55.08,20.11 C57.3886382,20.6185883 59.0263573,22.673501 59.0070403,25.0374171 C58.9877233,27.4013332 57.3166413,29.4292077 55,29.9 Z" id="Shape" fill="#AF8066"/><path d="M27,37 L27,40 C26.9984072,40.5516236 26.5516236,40.9984072 26,41 L22,41 C21.4483764,40.9984072 21.0015928,40.5516236 21,40 L21,37 C21.0015928,37.5516236 21.4483764,37.9984072 22,38 L26,38 C26.5516236,37.9984072 26.9984072,37.5516236 27,37 Z" id="Shape" fill="#7F5B53"/><path d="M55,37 L55,40 C54.9984072,40.5516236 54.5516236,40.9984072 54,41 L50,41 C49.4483764,40.9984072 49.0015928,40.5516236 49,40 L49,37 C49.0015928,37.5516236 49.4483764,37.9984072 50,38 L54,38 C54.5516236,37.9984072 54.9984072,37.5516236 55,37 Z" id="Shape" fill="#7F5B53"/><rect id="Rectangle-path" fill="#7F5B53" x="27" y="33" width="22" height="4"/><path d="M38,31 L38.0000002,33 L27,33 L27,26.9999998 L34,27 C35.0609554,26.9997081 36.0785407,27.4210417 36.8287495,28.1712505 C37.5789583,28.9214593 38.0002919,29.9390446 38,31 Z" id="Shape" fill="#DF4D60"/><path d="M49,26.9999998 L49,33 L37.9999998,33 L38,31 C37.9997081,29.9390446 38.4210417,28.9214593 39.1712505,28.1712505 C39.9214593,27.4210417 40.9390446,26.9997081 42,27 L49,26.9999998 Z" id="Shape" fill="#FF5364"/><path d="M39,9 L39,18 C39,18.5522847 38.5522847,19 38,19 C37.4477153,19 37,18.5522847 37,18 L37,9 L39,9 Z" id="Shape" fill="#DF4D60"/><path d="M22,27 C21.4477153,27 21,26.5522847 21,26 L21,25 C21,24.4477153 21.4477153,24 22,24 C22.5522847,24 23,24.4477153 23,25 L23,26 C23,26.5522847 22.5522847,27 22,27 Z" id="Shape" fill="#7F5B53"/><path d="M54,27 C53.4477153,27 53,26.5522847 53,26 L53,25 C53,24.4477153 53.4477153,24 54,24 C54.5522847,24 55,24.4477153 55,25 L55,26 C55,26.5522847 54.5522847,27 54,27 Z" id="Shape" fill="#7F5B53"/><path d="M30,18 C29.4477153,18 29,17.5522847 29,17 L29,16 C29,15.4477153 29.4477153,15 30,15 C30.5522847,15 31,15.4477153 31,16 L31,17 C31,17.5522847 30.5522847,18 30,18 Z" id="Shape" fill="#DF4D60"/><path d="M46,18 C45.4477153,18 45,17.5522847 45,17 L45,16 C45,15.4477153 45.4477153,15 46,15 C46.5522847,15 47,15.4477153 47,16 L47,17 C47,17.5522847 46.5522847,18 46,18 Z" id="Shape" fill="#DF4D60"/><path d="M31,42 L1,42 C0.44771525,42 6.76353751e-17,41.5522847 0,41 C-6.76353751e-17,40.4477153 0.44771525,40 1,40 L31,40 C31.5522847,40 32,40.4477153 32,41 C32,41.5522847 31.5522847,42 31,42 Z" id="Shape" fill="#95A5A5"/><path d="M59,42 L45,42 C44.4477153,42 44,41.5522847 44,41 C44,40.4477153 44.4477153,40 45,40 L59,40 C59.5522847,40 60,40.4477153 60,41 C60,41.5522847 59.5522847,42 59,42 Z" id="Shape" fill="#95A5A5"/></g></g></svg>
