<svg id="Layer_1" height="512" viewBox="0 0 512 512" width="512" xmlns="http://www.w3.org/2000/svg" data-name="Layer 1"><path d="m504 371.47v91.63h-486v-91.63a33.658 33.658 0 0 1 33.66-33.65c1.13 0 2.25.06 3.35.16a33.669 33.669 0 0 1 30.3 33.49v24.33h351.38v-24.33a33.669 33.669 0 0 1 30.3-33.49c1.11-.1 2.23-.16 3.36-.16a33.656 33.656 0 0 1 33.65 33.65z" fill="#00acea"/><path d="m412.86 463.1h67.86v35.9h-67.86z" fill="#00efd1"/><path d="m466.98 337.82.01.16a33.669 33.669 0 0 0 -30.3 33.49v24.33h-351.38v-24.33a33.669 33.669 0 0 0 -30.3-33.49l.01-.16v-64.17a33.649 33.649 0 0 1 33.65-33.65h344.66a33.649 33.649 0 0 1 33.65 33.65z" fill="#fedb41"/><path d="m180.44 135.63v-54.24l27.62-24.57v146.42h-.47l-27.15-24.35z" fill="#fedb41"/><path d="m207.59 203.24h-199.51l27.34-24.35h145.02z" fill="#00acea"/><path d="m180.44 135.63v43.26h-145.02v-26.22h.02l41.66-31.27 54.33 36.96z" fill="#00efd1"/><path d="m180.44 81.39v54.24l-49.01 22.73-54.33-36.96-41.66 31.27h-.02v-71.28z" fill="#f4b844"/><path d="m41.28 463.1h67.87v35.9h-67.87z" fill="#00efd1"/><path d="m35.42 152.67v26.22l-27.34 24.35h-.08v-146.07l27.42 24.22z" fill="#fedb41"/><path d="m147.418 60.873-39.388-39.388-39.387 39.388-8.485-8.486 43.63-43.63a6 6 0 0 1 8.484 0l43.63 43.63z" fill="#fedb41"/><path d="m364 164h12v76h-12z" fill="#f4b844"/><g fill="#00ceb4"><path d="m381.12 312.26a6 6 0 0 1 -4.244-10.241l10.53-10.54a6 6 0 0 1 8.489 8.482l-10.531 10.539a5.979 5.979 0 0 1 -4.244 1.76z"/><path d="m344.55 348.82a6 6 0 0 1 -4.24-10.245l9.919-9.909a6 6 0 1 1 8.481 8.489l-9.92 9.909a5.978 5.978 0 0 1 -4.24 1.756z"/><path d="m391.65 348.82a5.979 5.979 0 0 1 -4.242-1.758l-10.53-10.529a6 6 0 1 1 8.484-8.486l10.531 10.53a6 6 0 0 1 -4.243 10.243z"/><path d="m354.47 311.64a5.98 5.98 0 0 1 -4.242-1.757l-9.92-9.92a6 6 0 1 1 8.484-8.485l9.92 9.919a6 6 0 0 1 -4.242 10.243z"/><path d="m271.12 312.26a6 6 0 0 1 -4.244-10.241l10.53-10.54a6 6 0 0 1 8.489 8.482l-10.531 10.539a5.979 5.979 0 0 1 -4.244 1.76z"/><path d="m234.55 348.82a6 6 0 0 1 -4.24-10.245l9.919-9.909a6 6 0 1 1 8.481 8.489l-9.92 9.909a5.978 5.978 0 0 1 -4.24 1.756z"/><path d="m281.65 348.82a5.979 5.979 0 0 1 -4.242-1.758l-10.53-10.529a6 6 0 1 1 8.484-8.486l10.531 10.53a6 6 0 0 1 -4.243 10.243z"/><path d="m244.47 311.64a5.98 5.98 0 0 1 -4.242-1.757l-9.92-9.92a6 6 0 0 1 8.484-8.485l9.92 9.919a6 6 0 0 1 -4.242 10.243z"/><path d="m161.12 312.26a6 6 0 0 1 -4.244-10.241l10.53-10.54a6 6 0 0 1 8.489 8.482l-10.531 10.539a5.979 5.979 0 0 1 -4.244 1.76z"/><path d="m124.55 348.82a6 6 0 0 1 -4.24-10.245l9.919-9.909a6 6 0 1 1 8.481 8.489l-9.92 9.909a5.978 5.978 0 0 1 -4.24 1.756z"/><path d="m171.65 348.82a5.979 5.979 0 0 1 -4.242-1.758l-10.53-10.529a6 6 0 1 1 8.484-8.486l10.531 10.53a6 6 0 0 1 -4.243 10.243z"/><path d="m134.47 311.64a5.98 5.98 0 0 1 -4.242-1.757l-9.92-9.92a6 6 0 0 1 8.484-8.485l9.92 9.919a6 6 0 0 1 -4.242 10.243z"/></g><path d="m368.1 341.422a22.158 22.158 0 1 1 15.662-6.493 21.988 21.988 0 0 1 -15.662 6.493z" fill="#00efd1"/><path d="m258.1 341.422a22.158 22.158 0 1 1 15.662-6.493 21.988 21.988 0 0 1 -15.662 6.493z" fill="#00efd1"/><path d="m148.1 341.422a22.158 22.158 0 1 1 15.662-6.493 21.988 21.988 0 0 1 -15.662 6.493z" fill="#00efd1"/><path d="m208.06 56.63v.19l-27.62 24.57h-145.02l-27.42-24.22v-.54h56.4 87.26z" fill="#00acea"/><path d="m128.37 98.77a14.21 14.21 0 1 1 -14.21 14.21 14.216 14.216 0 0 1 14.21-14.21z" fill="#00efd1"/><path d="m399.08 94.84 20.93 69.76h-100.02l20.93-69.76z" fill="#00efd1"/></svg>